<?xml version="1.0" encoding="UTF-8" standalone="no"?>
<!-- Created with Inkscape (http://www.inkscape.org/) -->

<svg
   xmlns:dc="http://purl.org/dc/elements/1.1/"
   xmlns:cc="http://creativecommons.org/ns#"
   xmlns:rdf="http://www.w3.org/1999/02/22-rdf-syntax-ns#"
   xmlns:svg="http://www.w3.org/2000/svg"
   xmlns="http://www.w3.org/2000/svg"
   xmlns:sodipodi="http://sodipodi.sourceforge.net/DTD/sodipodi-0.dtd"
   xmlns:inkscape="http://www.inkscape.org/namespaces/inkscape"
   id="svg2"
   version="1.1"
   inkscape:version="0.92.2 (5c3e80d, 2017-08-06)"
   width="1000"
   height="500.474"
   sodipodi:docname="ITV_2013_(Monochrome).svg">
  <metadata
     id="metadata8">
    <rdf:RDF>
      <cc:Work
         rdf:about="">
        <dc:format>image/svg+xml</dc:format>
        <dc:type
           rdf:resource="http://purl.org/dc/dcmitype/StillImage" />
        <dc:title />
      </cc:Work>
    </rdf:RDF>
  </metadata>
  <defs
     id="defs6" />
  <sodipodi:namedview
     pagecolor="#ffffff"
     bordercolor="#666666"
     borderopacity="1"
     objecttolerance="10"
     gridtolerance="10"
     guidetolerance="10"
     inkscape:pageopacity="0"
     inkscape:pageshadow="2"
     inkscape:window-width="1920"
     inkscape:window-height="1028"
     id="namedview4"
     showgrid="false"
     fit-margin-left="0.1"
     fit-margin-top="0.1"
     fit-margin-bottom="0.1"
     fit-margin-right="0.1"
     inkscape:zoom="0.5210356"
     inkscape:cx="906.68012"
     inkscape:cy="53.584363"
     inkscape:window-x="-8"
     inkscape:window-y="-8"
     inkscape:window-maximized="1"
     inkscape:current-layer="svg2">
    <inkscape:grid
       type="xygrid"
       id="grid2998"
       empspacing="5"
       visible="true"
       enabled="true"
       snapvisiblegridlinesonly="true" />
  </sodipodi:namedview>
  <path
     sodipodi:nodetypes="ccccc"
     inkscape:connector-curvature="0"
     id="path3018"
     d="M 8.9004401e-7,65.583533 C 8.9004401e-7,29.461044 25.592038,-0.09975892 66.716061,-0.09975892 c 43.295979,0 66.509509,31.01195892 66.509509,67.43898792 0,40.058611 -29.33199,64.340721 -66.199683,64.340721 C 26.899421,131.67995 8.9004401e-7,104.30901 8.9004401e-7,65.583533 Z"
     style="fill:#00beca;fill-opacity:1;stroke:none;stroke-width:1.72192895" />
  <path
     sodipodi:nodetypes="ccccccccccccc"
     inkscape:connector-curvature="0"
     id="path3020"
     d="m 0.341914,186.54908 c 0,-6.14854 3.4478339,-10.59296 10.331574,-10.59296 H 123.06775 c 5.93753,0 9.8627,4.70574 9.8627,10.48921 v 172.30733 c 0,29.37781 16.72766,63.54493 68.35376,63.54493 50.27847,0 76.28827,-31.28485 76.28827,-95.15931 v -13.42784 l 53.3798,101.59381 6.88772,34.43858 c 0,0 -52.37251,50.63113 -147.29646,50.63113 -47.11441,0 -190.201626,-7.729 -190.201626,-164.27845 z"
     style="fill:#00beca;fill-opacity:1;stroke:none;stroke-width:1.72192895" />
  <path
     sodipodi:nodetypes="ccccccccccc"
     inkscape:connector-curvature="0"
     id="path3024"
     d="m 337.84,449.74283 53.3798,-137.75432 17.21929,-17.21929 v 24.107 c 0,57.98381 28.12952,102.59515 100.91633,102.59515 66.36965,0 113.08683,-37.59815 113.08683,-95.94306 0,-29.6559 -14.35533,-53.18696 -14.35533,-53.18696 l 75.28794,37.59235 6.59962,91.59512 c 0,0 -50.1362,98.32875 -191.46299,98.32875 -110.35771,0 -160.67149,-50.11474 -160.67149,-50.11474 z"
     style="fill:#8c7b11;fill-opacity:1;stroke:none;stroke-width:1.72192895" />
  <path
     sodipodi:nodetypes="cccccccccccccc"
     inkscape:connector-curvature="0"
     id="path3022"
     d="m 337.84,449.74283 c 0,0 -60.26752,-46.05563 -60.26752,-132.17357 V 70.918448 c 0,-19.833265 12.79798,-37.020303 66.15577,-37.020303 58.31189,0 64.71084,22.697642 64.71084,39.726366 V 175.95612 h 103.31574 c 7.45474,0 10.33157,4.35751 10.33157,11.26179 v 61.05922 c 0,5.77372 -2.35556,10.33158 -9.13242,10.33158 H 444.5996 c -17.72563,0 -36.16051,-6.88772 -36.16051,-6.88772 v 41.3263 c 0,51.52779 -13.31485,104.16133 -70.59909,156.69554 z"
     style="fill:#000000;fill-opacity:1;stroke:none;stroke-width:1.72192895" />
  <path
     sodipodi:nodetypes="cccccccccccc"
     inkscape:connector-curvature="0"
     id="path3028"
     d="m 689.97448,401.52882 16.40537,-180.24366 7.41221,-31.36506 c 0,0 32.7404,47.73526 116.1493,201.29867 52.97289,-96.31784 86.75596,-211.41289 86.75596,-211.41289 2.37191,-7.86744 8.65318,-9.77217 17.74553,-7.37571 l 57.18006,17.67251 c 6.94248,2.47747 10.70899,5.22016 6.79975,18.12876 -47.56077,138.40924 -122.03619,252.58196 -122.03619,252.58196 -14.3384,21.24885 -28.94434,39.28846 -77.33549,39.28846 -39.04074,0 -52.63718,-13.29735 -66.23541,-33.59237 z"
     style="fill:#ffab00;fill-opacity:1;stroke:none;stroke-width:1.72192895" />
  <path
     sodipodi:nodetypes="ccccccc"
     inkscape:connector-curvature="0"
     id="path3026"
     d="m 689.97448,401.52882 -89.1407,-140.46039 c -5.34995,-10.01107 -9.42739,-16.08219 -9.42739,-27.9718 0.0689,-17.47636 9.1498,-30.11246 39.94135,-49.40425 6.65369,-4.37213 30.63451,-13.90373 50.06489,-13.90373 26.20265,0 45.75111,27.12019 45.75111,83.85982 0,92.32189 -37.18926,147.88035 -37.18926,147.88035 z"
     style="fill:#c80063;fill-opacity:1;stroke:none;stroke-width:1.72192895" />
</svg>
